<svg width="333.0431884765625px" height="92.8000015258789px" xmlns="http://www.w3.org/2000/svg" viewBox="83.47840576171876 28.59999923706055 333.0431884765625 92.8000015258789" style="background: rgba(0, 0, 0, 0);" preserveAspectRatio="xMidYMid"><defs><linearGradient id="editing-gradient-gradient" x1="0" x2="1" y1="0.5" y2="0.5" gradientUnits="objectBoundingBox"><stop offset="0" stop-color="#ffa500"></stop><stop offset="1" stop-color="#0a66c2"></stop></linearGradient></defs><g><g transform="translate(133.16589260101318, 89.75999450683594)"><path d="M2.96 0L2.96-27.52L25.20-27.52L25.20-20.92L11.80-20.92L11.80-16.20L23.32-16.20L23.32-9.88L11.80-9.88L11.80 0L2.96 0ZM41.92-21.64L41.92-21.64Q42.84-21.64 43.56-21.42L43.56-21.42L43.56-21.42Q44.28-21.20 44.28-21.16L44.28-21.16L44.28-14.48L41.72-14.48L41.72-14.48Q39.24-14.48 38.14-13.20L38.14-13.20L38.14-13.20Q37.04-11.92 37.04-9.40L37.04-9.40L37.04 0L29.08 0L29.08-21.12L35.60-21.12L36.12-17.92L36.12-17.92Q36.84-19.76 38.40-20.70L38.40-20.70L38.40-20.70Q39.96-21.64 41.92-21.64L41.92-21.64ZM55.08-23.60L47.12-23.60L47.12-29L55.08-29L55.08-23.60ZM55.08 0L47.12 0L47.12-21.12L55.08-21.12L55.08 0ZM71.08-21.60L71.08-21.60Q76.88-21.60 79.94-18.88L79.94-18.88L79.94-18.88Q83-16.16 83-10.56L83-10.56L83-9.20L67.16-9.20L67.16-9.20Q67.16-6.92 68.18-5.76L68.18-5.76L68.18-5.76Q69.20-4.60 71.40-4.60L71.40-4.60L71.40-4.60Q73.40-4.60 74.34-5.44L74.34-5.44L74.34-5.44Q75.28-6.28 75.28-7.68L75.28-7.68L83-7.68L83-7.68Q83-3.84 80.08-1.68L80.08-1.68L80.08-1.68Q77.16 0.48 71.56 0.48L71.56 0.48L71.56 0.48Q65.68 0.48 62.44-2.26L62.44-2.26L62.44-2.26Q59.20-5 59.20-10.56L59.20-10.56L59.20-10.56Q59.20-16 62.36-18.80L62.36-18.80L62.36-18.80Q65.52-21.60 71.08-21.60L71.08-21.60ZM71.40-16.52L71.40-16.52Q67.64-16.52 67.20-12.96L67.20-12.96L74.96-12.96L74.96-12.96Q74.96-14.60 74.02-15.56L74.02-15.56L74.02-15.56Q73.08-16.52 71.40-16.52L71.40-16.52ZM101.40-21.60L101.40-21.60Q105.08-21.60 106.92-19.56L106.92-19.56L106.92-19.56Q108.76-17.52 108.76-13.68L108.76-13.68L108.76 0L100.80 0L100.80-12.72L100.80-12.72Q100.80-14.08 100.10-14.90L100.10-14.90L100.10-14.90Q99.40-15.72 98.12-15.72L98.12-15.72L98.12-15.72Q96.64-15.72 95.72-14.76L95.72-14.76L95.72-14.76Q94.80-13.80 94.80-12.40L94.80-12.40L94.80 0L86.84 0L86.84-21.12L93.36-21.12L93.88-17.92L93.88-17.92Q95.12-19.60 97.14-20.60L97.14-20.60L97.14-20.60Q99.16-21.60 101.40-21.60L101.40-21.60ZM135.36 0L128.88 0L128.20-3L128.20-3Q125.88 0.48 121.48 0.48L121.48 0.48L121.48 0.48Q117.20 0.48 114.88-2.32L114.88-2.32L114.88-2.32Q112.56-5.12 112.56-10.60L112.56-10.60L112.56-10.60Q112.56-16.04 114.88-18.82L114.88-18.82L114.88-18.82Q117.20-21.60 121.48-21.60L121.48-21.60L121.48-21.60Q125.12-21.60 127.40-19.16L127.40-19.16L127.40-29L135.36-29L135.36 0ZM123.96-15.72L123.96-15.72Q120.52-15.72 120.52-11.60L120.52-11.60L120.52-9.48L120.52-9.48Q120.52-5.40 123.96-5.40L123.96-5.40L123.96-5.40Q125.72-5.40 126.60-6.64L126.60-6.64L126.60-6.64Q127.48-7.88 127.48-9.88L127.48-9.88L127.48-11.20L127.48-11.20Q127.48-13.20 126.60-14.46L126.60-14.46L126.60-14.46Q125.72-15.72 123.96-15.72L123.96-15.72ZM140.76 0L140.76-27.52L149.60-27.52L149.60-7.04L163.72-7.04L163.72 0L140.76 0ZM175.12-23.60L167.16-23.60L167.16-29L175.12-29L175.12-23.60ZM175.12 0L167.16 0L167.16-21.12L175.12-21.12L175.12 0ZM194.76-21.60L194.76-21.60Q198.44-21.60 200.28-19.56L200.28-19.56L200.28-19.56Q202.12-17.52 202.12-13.68L202.12-13.68L202.12 0L194.16 0L194.16-12.72L194.16-12.72Q194.16-14.08 193.46-14.90L193.46-14.90L193.46-14.90Q192.76-15.72 191.48-15.72L191.48-15.72L191.48-15.72Q190-15.72 189.08-14.76L189.08-14.76L189.08-14.76Q188.16-13.80 188.16-12.40L188.16-12.40L188.16 0L180.20 0L180.20-21.12L186.72-21.12L187.24-17.92L187.24-17.92Q188.48-19.60 190.50-20.60L190.50-20.60L190.50-20.60Q192.52-21.60 194.76-21.60L194.76-21.60ZM214.84-13.04L221.60-21.12L230.88-21.12L223.08-12.60L231.08 0L222.04 0L217.60-7.24L214.84-4.56L214.84 0L206.88 0L206.88-29.04L214.84-29.04L214.84-13.04Z" fill="url(#editing-gradient-gradient)"></path></g></g><style>text {
  font-size: 64px;
  font-family: Arial Black;
  dominant-baseline: central;
  text-anchor: middle;
}</style></svg>